HIERARCHY
ROOT joint_Root
{
	OFFSET 0.0 0.0 0.0
	CHANNELS 6 Xposition Yposition Zposition Zrotation Xrotation Yrotation 
	JOINT Hips
	{
		OFFSET -17.1583 93.1646 452.98
		CHANNELS 6 Xposition Yposition Zposition Zrotation Xrotation Yrotation 
		JOINT Spine
		{
			OFFSET 15.7357 0.0 0.0
			CHANNELS 6 Xposition Yposition Zposition Zrotation Xrotation Yrotation 
			JOINT Chest
			{
				OFFSET 8.98455 -0.406207 0.0
				CHANNELS 6 Xposition Yposition Zposition Zrotation Xrotation Yrotation 
				JOINT Neck
				{
					OFFSET 16.3773 0.0 0.0
					CHANNELS 6 Xposition Yposition Zposition Zrotation Xrotation Yrotation 
					JOINT Head
					{
						OFFSET 6.45672 0.0 0.0
						CHANNELS 6 Xposition Yposition Zposition Zrotation Xrotation Yrotation 
						End Site
						{
							OFFSET 0.0 0.0 0.0
						}
					}
				}
				JOINT Shoulder_L
				{
					OFFSET 12.9942 -0.242716 4.98039
					CHANNELS 6 Xposition Yposition Zposition Zrotation Xrotation Yrotation 
					JOINT UpperArm_L
					{
						OFFSET 5.34809 0.0 0.0
						CHANNELS 6 Xposition Yposition Zposition Zrotation Xrotation Yrotation 
						JOINT LowerArm_L
						{
							OFFSET 24.3286 1.87007e-05 0.0
							CHANNELS 6 Xposition Yposition Zposition Zrotation Xrotation Yrotation 
							JOINT Hand_L
							{
								OFFSET 22.2916 0.0 0.0
								CHANNELS 6 Xposition Yposition Zposition Zrotation Xrotation Yrotation 
								End Site
								{
									OFFSET 0.0 0.0 0.0
								}
							}
						}
					}
				}
				JOINT Shoulder_R
				{
					OFFSET 12.9945 -0.242716 -4.98039
					CHANNELS 6 Xposition Yposition Zposition Zrotation Xrotation Yrotation 
					JOINT UpperArm_R
					{
						OFFSET -5.34813 0.0 0.0
						CHANNELS 6 Xposition Yposition Zposition Zrotation Xrotation Yrotation 
						JOINT LowerArm_R
						{
							OFFSET -24.3289 0.000322201 0.0
							CHANNELS 6 Xposition Yposition Zposition Zrotation Xrotation Yrotation 
							JOINT Hand_R
							{
								OFFSET -22.2915 -0.000108084 0.0
								CHANNELS 6 Xposition Yposition Zposition Zrotation Xrotation Yrotation 
								End Site
								{
									OFFSET 0.0 0.0 0.0
								}
							}
						}
					}
				}
			}
		}
		JOINT UpperLeg_L
		{
			OFFSET -2.19248 -6.46944 0.0
			CHANNELS 6 Xposition Yposition Zposition Zrotation Xrotation Yrotation 
			JOINT LowerLeg_L
			{
				OFFSET 39.0811 0.0 -1.23785e-05
				CHANNELS 6 Xposition Yposition Zposition Zrotation Xrotation Yrotation 
				JOINT Foot_L
				{
					OFFSET 40.9854 0.0 -1.26872e-05
					CHANNELS 6 Xposition Yposition Zposition Zrotation Xrotation Yrotation 
					JOINT Toes_L
					{
						OFFSET 11.7543 0.0 0.0
						CHANNELS 6 Xposition Yposition Zposition Zrotation Xrotation Yrotation 
						End Site
						{
							OFFSET 0.0 0.0 0.0
						}
					}
				}
			}
		}
		JOINT UpperLeg_R
		{
			OFFSET -2.19251 6.46944 0.0
			CHANNELS 6 Xposition Yposition Zposition Zrotation Xrotation Yrotation 
			JOINT LowerLeg_R
			{
				OFFSET -39.0811 -0.00228153 -0.0401928
				CHANNELS 6 Xposition Yposition Zposition Zrotation Xrotation Yrotation 
				JOINT Foot_R
				{
					OFFSET -40.9854 0.0 0.0
					CHANNELS 6 Xposition Yposition Zposition Zrotation Xrotation Yrotation 
					JOINT Toes_R
					{
						OFFSET -11.7543 0.0 0.0
						CHANNELS 6 Xposition Yposition Zposition Zrotation Xrotation Yrotation 
						End Site
						{
							OFFSET 0.0 0.0 0.0
						}
					}
				}
			}
		}
	}
}
MOTION
Frames:	6
Frame Time:	0.0333333
0.000000 0.000000 0.000000 0.000000 0.000000 -0.000000 0.397436 92.803700 2.659440 88.437900 5.123630 2.089910 15.735700 0.000005 -0.000001 94.299500 86.989400 -99.466000 8.984550 -0.406207 -0.000000 -1.701320 0.877364 -10.317600 16.377300 -0.000001 -0.000001 1.532880 -3.850710 -3.894560 6.456720 -0.000001 -0.000000 4.642150 -3.157410 -17.493500 12.994200 -0.242716 4.980390 -92.520900 7.157410 -70.539300 5.348090 -0.000007 -0.000001 -61.919900 -3.774670 -0.557441 24.328600 0.000019 0.000005 12.191600 25.705000 -26.478800 22.291600 -0.000001 0.000005 0.897634 4.905200 9.274050 12.994500 -0.242716 -4.980390 93.873400 -7.314030 -61.994100 -5.348130 -0.000001 -0.000004 -44.506500 -69.897600 -87.573600 -24.328900 0.000322 -0.000009 6.027980 8.558590 -35.362500 -22.291500 -0.000108 -0.000004 49.464500 5.676380 -18.550600 -2.192480 -6.469440 -0.000000 -174.234000 -1.964240 0.538520 39.081100 -0.000007 -0.000012 -0.009220 0.031195 16.464900 40.985400 -0.000006 -0.000013 0.683275 15.411300 -70.264900 11.754300 -0.000000 0.000003 -0.002318 0.200254 -8.451910 -2.192510 6.469440 -0.000001 175.152000 10.214400 -174.694000 -39.081100 -0.002282 -0.040193 -0.011343 0.078342 10.613800 -40.985400 0.000008 0.000006 -10.867500 4.895040 -67.352400 -11.754300 -0.000006 -0.000006 -0.011200 0.280065 -5.192560
0.000000 0.000000 0.000000 0.000000 0.000000 -0.000000 0.382108 92.797600 2.610820 88.363000 4.838710 2.237460 15.735700 0.000005 -0.000001 94.898300 86.863900 -100.116000 8.984550 -0.406207 -0.000000 -1.451920 0.954400 -10.421300 16.377300 -0.000001 -0.000001 1.405700 -3.675230 -4.332360 6.456720 -0.000001 -0.000000 4.450520 -3.175550 -17.647600 12.994200 -0.242716 4.980390 -92.538500 7.201470 -70.523600 5.348090 -0.000007 -0.000001 -62.295000 -3.175770 -0.786057 24.328600 0.000019 0.000005 12.322000 26.084300 -26.417900 22.291600 -0.000001 0.000005 0.801901 4.904160 9.294650 12.994500 -0.242716 -4.980390 93.757700 -7.147250 -62.171600 -5.348130 -0.000001 -0.000004 -44.347300 -68.927000 -85.493200 -24.328900 0.000322 -0.000009 3.511720 5.335190 -33.430800 -22.291500 -0.000108 -0.000004 48.708000 5.668740 -17.190900 -2.192480 -6.469440 -0.000000 -174.170000 -2.046240 0.625997 39.081100 -0.000007 -0.000012 -0.007542 0.025266 16.620100 40.985400 -0.000006 -0.000013 0.670062 15.223000 -70.361700 11.754300 -0.000000 0.000003 -0.002219 0.199060 -8.500460 -2.192510 6.469440 -0.000001 175.183000 10.194100 -174.631000 -39.081100 -0.002282 -0.040193 -0.011848 0.080824 10.641200 -40.985400 0.000008 0.000006 -10.827200 5.151420 -67.293800 -11.754300 -0.000006 -0.000006 -0.011498 0.282180 -5.105950
0.000000 0.000000 0.000000 0.000000 0.000000 -0.000000 0.395675 92.784000 2.588420 88.310200 4.547650 2.343310 15.735700 0.000005 -0.000001 96.051600 86.753500 -101.342000 8.984550 -0.406207 -0.000000 -1.236410 1.099180 -10.565700 16.377300 -0.000001 -0.000001 1.375120 -3.439290 -4.931830 6.456720 -0.000001 -0.000000 4.147370 -3.107430 -17.856500 12.994200 -0.242716 4.980390 -92.549600 7.209720 -70.465200 5.348090 -0.000007 -0.000001 -62.587500 -2.705980 -0.896075 24.328600 0.000019 0.000005 12.364200 26.148200 -26.446400 22.291600 -0.000001 0.000005 0.454496 4.910200 9.173720 12.994500 -0.242716 -4.980390 93.655300 -7.014390 -62.384500 -5.348130 -0.000001 -0.000004 -44.429300 -67.887600 -82.940800 -24.328900 0.000322 -0.000009 1.365700 2.335300 -30.349100 -22.291500 -0.000108 -0.000004 49.350800 5.661420 -16.231700 -2.192480 -6.469440 -0.000000 -174.138000 -2.128130 0.672776 39.081100 -0.000007 -0.000012 -0.007553 0.025037 16.786200 40.985400 -0.000006 -0.000013 0.668271 15.015800 -70.386200 11.754300 -0.000000 0.000003 -0.002576 0.203334 -8.326610 -2.192510 6.469440 -0.000001 175.214000 10.112800 -174.672000 -39.081100 -0.002282 -0.040193 -0.011752 0.078852 10.833600 -40.985400 0.000008 0.000006 -10.538700 5.356200 -67.404500 -11.754300 -0.000006 -0.000006 -0.011496 0.282161 -5.106740
0.000000 0.000000 0.000000 0.000000 0.000000 -0.000000 0.403888 92.771200 2.578570 88.257000 4.314350 2.432690 15.735700 0.000005 -0.000001 97.369100 86.648100 -102.748000 8.984550 -0.406207 -0.000000 -1.035230 1.271880 -10.741800 16.377300 -0.000001 -0.000001 1.303070 -3.105820 -5.688540 6.456720 -0.000001 -0.000000 4.005330 -3.008650 -18.223000 12.994200 -0.242716 4.980390 -92.597500 7.300850 -70.354400 5.348090 -0.000007 -0.000001 -62.625300 -2.418000 -0.996982 24.328600 0.000019 0.000005 12.281700 26.029800 -26.385200 22.291600 -0.000001 0.000005 0.298763 4.917000 9.036990 12.994500 -0.242716 -4.980390 93.558800 -6.912050 -62.670900 -5.348130 -0.000001 -0.000004 -43.642700 -66.930900 -78.885200 -24.328900 0.000322 -0.000009 0.138565 0.277739 -26.652700 -22.291500 -0.000108 -0.000004 49.671100 5.643750 -14.446600 -2.192480 -6.469440 -0.000000 -174.112000 -2.182390 0.711431 39.081100 -0.000007 -0.000012 -0.006334 0.020792 16.941900 40.985400 -0.000006 -0.000013 0.673846 14.824400 -70.424800 11.754300 -0.000000 0.000003 -0.002328 0.200379 -8.446820 -2.192510 6.469440 -0.000001 175.258000 10.051000 -174.696000 -39.081100 -0.002282 -0.040193 -0.011530 0.076647 10.977500 -40.985400 0.000008 0.000006 -10.300500 5.474590 -67.446900 -11.754300 -0.000006 -0.000006 -0.011328 0.280975 -5.155310
0.000000 0.000000 0.000000 0.000000 0.000000 -0.000000 0.426575 92.761500 2.582220 88.239100 4.115560 2.516370 15.735700 0.000005 -0.000001 98.402200 86.572600 -103.884000 8.984550 -0.406207 -0.000000 -0.893489 1.414770 -10.948800 16.377300 -0.000001 -0.000001 1.316610 -2.675660 -6.576080 6.456720 -0.000001 -0.000000 3.895900 -2.842110 -18.741700 12.994200 -0.242716 4.980390 -92.678600 7.447920 -70.154500 5.348090 -0.000007 -0.000001 -62.483800 -2.555200 -1.047750 24.328600 0.000019 0.000005 12.210200 26.034700 -26.244000 22.291600 -0.000001 0.000005 0.254441 4.915550 9.066170 12.994500 -0.242716 -4.980390 93.542200 -7.000680 -63.074100 -5.348130 -0.000001 -0.000004 -40.963800 -65.679700 -72.356300 -24.328900 0.000322 -0.000009 -1.122230 -2.711660 -22.479300 -22.291500 -0.000108 -0.000004 49.449600 5.615820 -12.337800 -2.192480 -6.469440 -0.000000 -174.140000 -2.105960 0.786280 39.081100 -0.000007 -0.000012 -0.003935 0.012837 17.039900 40.985400 -0.000006 -0.000013 0.668676 14.570700 -70.521000 11.754300 -0.000000 0.000003 -0.002397 0.201210 -8.413030 -2.192510 6.469440 -0.000001 175.244000 10.118200 -174.697000 -39.081100 -0.002282 -0.040193 -0.011412 0.075045 11.119000 -40.985400 0.000008 0.000006 -10.018700 5.672140 -67.589500 -11.754300 -0.000006 -0.000006 -0.011489 0.282114 -5.108680
0.000000 0.000000 0.000000 0.000000 0.000000 -0.000000 0.446105 92.748300 2.588050 88.231000 3.914030 2.525790 15.735700 0.000005 -0.000001 99.698000 86.514000 -105.289000 8.984550 -0.406207 -0.000000 -0.791505 1.590780 -11.166900 16.377300 -0.000001 -0.000001 1.380140 -2.164410 -7.548530 6.456720 -0.000001 -0.000000 3.776290 -2.608390 -19.436400 12.994200 -0.242716 4.980390 -92.784700 7.636340 -69.895900 5.348090 -0.000007 -0.000001 -62.185000 -2.785020 -1.082400 24.328600 0.000019 0.000005 12.214700 26.221500 -26.102000 22.291600 -0.000001 0.000005 0.267326 4.915810 9.060920 12.994500 -0.242716 -4.980390 93.557700 -7.108550 -63.324300 -5.348130 -0.000001 -0.000004 -36.516800 -63.573100 -64.208100 -24.328900 0.000322 -0.000009 -2.053390 -6.549330 -17.444700 -22.291500 -0.000108 -0.000004 48.366200 5.566670 -9.516070 -2.192480 -6.469440 -0.000000 -174.147000 -2.219720 0.790343 39.081100 -0.000007 -0.000012 -0.003331 0.010811 17.121900 40.985400 -0.000006 -0.000013 0.686661 14.492300 -70.501600 11.754300 -0.000000 0.000003 -0.002215 0.199002 -8.502810 -2.192510 6.469440 -0.000001 175.256000 9.982910 -174.784000 -39.081100 -0.002282 -0.040193 -0.010530 0.069568 11.272700 -40.985400 0.000008 0.000006 -9.819390 5.724690 -67.693900 -11.754300 -0.000006 -0.000006 -0.011410 0.281554 -5.131600
